<svg width="865" height="838" viewBox="0 0 865 838" fill="none" xmlns="http://www.w3.org/2000/svg">
<g opacity="0.13">
<path d="M860.378 158.09C863.551 152.849 864.955 146.551 864.241 140.261C863.551 132.55 862.496 126.615 861.092 122.061C857.918 112.614 850.533 104.233 836.128 93.3809C825.228 85.3307 812.203 77.2966 798.146 70.288C771.786 56.6503 730.996 40.558 688.462 40.558H682.505C660.349 40.558 634.33 31.8133 611.484 24.1265C599.173 19.9358 587.583 16.0924 576.335 13.2744C567.886 11.1912 551.72 7.69501 536.259 7.69501H535.886C491.947 7.69501 465.588 15.3819 444.487 21.3328C439.22 22.7296 434.301 24.4656 429.375 25.5234C405.125 31.4742 386.126 33.9208 365.05 33.9208C324.26 33.9208 276.093 24.1265 207.905 1.74414C204.732 0.686401 201.209 0 197.712 0C184.004 0 172.041 8.03412 166.766 20.6221C154.463 51.0628 159.389 88.4878 179.419 118.218C182.227 122.409 185.4 126.615 188.922 130.467C97.8717 173.835 51.1008 242.023 27.9141 293.797C14.1985 324.237 5.04398 356.39 1.5461 387.541C-1.62716 416.221 0.117684 441.397 6.4723 458.176C8.56616 464.127 12.7945 469.028 18.0616 472.185C5.75813 570.467 40.2175 658.245 92.2313 704.778C97.4984 709.671 104.543 712.117 111.928 712.117C114.728 712.117 117.195 711.754 119.654 711.068C130.562 729.607 143.214 746.385 157.636 761.42C199.805 804.109 256.421 829.633 326.727 837.32H329.876C341.125 837.32 350.969 831.022 355.895 821.599C387.555 830.335 420.586 834.187 450.127 834.187C586.179 834.187 607.962 758.973 611.135 739.748C589.328 747.435 567.886 745.336 556.297 744.641C541.867 743.591 521.83 735.905 510.24 728.896C492.296 718.052 449.413 682.387 450.468 616.629C451.872 518.347 543.271 494.568 574.558 496.312C603.385 497.701 630.467 505.759 652.615 523.587C652.964 523.934 653.305 524.298 653.678 524.645L654.709 525.695C672.652 539.68 695.157 547.374 717.654 547.374C736.288 547.374 754.556 542.473 770.382 532.679C800.954 514.14 819.588 481.616 819.588 445.951C819.588 437.215 818.557 429.157 816.78 421.122C816.78 420.751 816.439 420.412 816.439 419.701C813.98 409.931 809.743 400.815 803.786 391.392C798.86 368.639 793.228 352.207 778.823 331.924C777.419 329.817 775.3 327.717 773.19 325.973H773.904C777.767 325.973 781.631 325.263 785.494 323.866C817.494 310.939 828.742 281.209 833.303 265.827L834.358 265.116C835.762 263.372 844.552 251.47 849.129 242.023L849.843 240.626C850.874 238.543 851.588 236.783 852.302 235.039C858.259 220.004 862.496 203.912 864.59 187.48C865.304 177.315 863.9 167.173 860.378 158.09Z" fill="white"/>
<path d="M820.805 152.841C807.098 144.444 795.135 132.905 788.805 123.45C787.766 121.714 789.86 119.607 791.637 120.656C802.886 127.302 821.519 138.493 834.513 143.757C835.227 144.097 836.266 143.386 836.266 142.7C835.917 137.459 835.227 133.253 834.172 130.798C830.309 118.92 753.656 67.4943 685.467 68.8912C645.392 69.9409 601.429 48.6082 569.453 40.9213C561.353 38.8139 547.638 36.3593 536.048 36.0201C485.065 36.0201 460.816 47.2113 436.201 53.1622C377.84 67.4943 322.653 69.2545 199.27 28.6724C197.16 27.9861 194.352 29.0196 193.637 31.119C173.941 79.7352 218.252 151.791 292.073 136.41C293.136 136.038 293.826 137.459 292.763 138.146C280.111 148.287 253.061 151.444 236.172 146.543C233.023 145.493 229.501 145.154 225.979 145.493C41.4106 216.492 14.7017 402.576 33.6844 448.737C45.2737 407.13 63.5666 384.747 80.0821 368.292C12.5835 499.8 50.5651 631.664 113.835 685.173C103.983 654.409 103.642 622.233 110.313 595.296C130.002 714.903 200.309 795.704 332.839 809.003C304.385 796.415 284.347 767.734 277.651 748.485C333.902 809.342 506.166 827.881 555.737 773.314C534.985 772.264 509.34 761.783 494.91 753.378C455.183 729.259 421.803 683.776 420.034 620.812C418.971 581.998 435.511 537.936 474.872 502.594C393.666 518 271.321 450.481 280.484 320.386C289.273 470.07 426.729 508.205 512.148 480.922C531.122 472.864 551.874 467.962 573.657 467.962C610.218 467.962 643.622 480.575 669.982 501.568C670.697 502.255 671.386 502.594 672.1 503.304C684.404 513.099 700.213 519.049 717.443 519.049C731.524 519.049 744.176 515.182 755.425 508.545C776.518 495.617 790.574 472.516 790.574 446.291C790.574 439.653 789.86 433.703 788.456 428.091V427.405C785.997 418.321 781.785 410.61 776.518 403.262C771.94 380.193 767.728 366.895 755.06 348.719C754.021 347.298 752.251 348.009 751.903 349.745C751.562 357.464 750.848 364.44 749.443 370.738C748.388 376.342 746.635 385.773 744.866 393.12C741.709 404.683 753.307 404.683 758.923 405.369C757.519 409.213 741.709 408.526 741.003 405.708V405.369C741.003 403.973 740.654 401.518 740.313 398.385C738.536 381.243 732.928 360.944 717.094 347.669C715.698 346.272 713.231 348.009 713.231 350.802C711.113 372.135 705.846 395.938 699.524 409.213V409.923C678.772 406.08 652.404 395.938 624.291 392.781C575.775 387.533 551.16 381.929 548.701 354.646C548.701 353.596 550.105 353.249 550.47 354.307C557.49 367.944 564.186 380.193 604.253 386.483C605.657 386.83 606.347 384.747 604.951 384.037C574.371 366.547 575.775 353.959 577.528 331.23C577.528 329.809 577.893 328.783 578.234 327.734C585.254 290.995 614.795 266.158 635.888 253.57C636.951 252.859 636.602 251.123 635.174 251.123C605.657 254.628 576.838 267.555 556.086 299.392C558.204 293.102 561.353 286.441 565.582 280.143C601.08 225.947 668.578 237.138 717.094 245.536C719.902 259.868 719.212 280.514 716.039 299.392C715.698 301.847 717.808 303.946 719.902 303.236C746.635 292.755 758.574 269.662 764.555 251.834C769.822 252.859 780.015 254.28 790.233 253.917C790.574 253.917 790.574 254.28 790.233 254.28C781.419 255.314 773.344 255.677 772.289 255.314C771.94 255.314 771.599 256.024 771.94 256.364C774.408 265.819 774.059 281.911 771.94 295.896C771.599 297.632 773.003 299.053 774.408 298.343C800.767 287.491 805.345 257.76 807.804 250.074C808.843 249.726 809.557 249.016 810.271 248.677C810.271 248.677 810.612 248.677 810.612 249.016C810.612 248.677 810.961 248.677 810.961 248.329C812.365 246.569 819.06 237.138 822.209 230.84C822.209 230.84 822.209 230.477 822.55 230.477C822.55 230.138 822.923 229.791 822.923 229.451C823.613 228.055 823.978 226.997 824.668 225.6C830.309 211.962 833.458 197.953 835.227 184.679C837.321 171.38 831.339 159.478 820.805 152.841ZM527.6 99.3318C524.451 91.2736 524.451 83.2394 529.377 76.9414C532.526 72.7589 525.855 67.8577 513.203 72.3875C516.351 69.9409 520.223 68.5439 524.451 67.8577C528.314 67.1471 532.526 67.4943 536.763 68.1968C544.838 69.5936 552.564 72.3874 558.894 77.2886C564.526 80.7929 570.143 85.3469 576.838 89.1903C576.465 94.7778 574.72 100.381 571.198 106.68C557.141 102.117 544.489 97.5878 527.6 99.3318ZM575.434 108.068C580.352 104.911 584.564 100.381 587.713 94.4306C588.086 94.4306 588.776 94.7778 589.142 94.7778C591.601 95.4803 594.068 96.1666 596.876 96.8772C599.335 97.2244 602.143 97.5877 604.602 97.5877C607.061 97.5877 609.869 97.2244 612.677 97.2244C606.72 100.729 592.639 112.63 575.434 108.068Z" fill="black"/>
</g>
</svg>
