<svg width="304" height="304" viewBox="0 0 304 304" fill="none" xmlns="http://www.w3.org/2000/svg">
<path d="M83.3202 148.223C83.3202 146.172 82.0147 145.332 80.1031 145.332H74.3681V151.254H79.6368C82.0613 151.301 83.3202 150.321 83.3202 148.223ZM88.6822 148.223C88.6822 152.606 85.8847 155.59 80.4761 155.59H74.3681V162.677H69.2393V141.323H81.4086C86.0712 141.369 88.6822 143.887 88.6822 148.223ZM109.058 152.093C109.058 147.57 106.307 145.332 102.717 145.332C99.173 145.379 96.3755 147.57 96.3755 152.093C96.3755 156.476 99.1264 158.714 102.717 158.714C106.26 158.714 109.058 156.476 109.058 152.093ZM114.56 152.093C114.56 159.32 109.291 163.004 102.763 163.004C96.2356 163.004 90.9669 159.32 90.9669 152.093C90.9669 144.726 96.2356 141.043 102.763 141.043C109.291 140.996 114.56 144.726 114.56 152.093ZM126.449 153.865L122.952 157.828V162.631H117.823V141.323H122.952V151.394L131.951 141.323H138.385L129.993 150.321L139.318 162.631H132.977L126.449 153.865ZM147.151 145.612V149.715H157.688V153.818H147.151V158.341H158.947V162.677H142.022V141.369H158.947V145.612H147.151ZM167.899 150.881H173.494C175.593 150.881 176.991 150.088 176.991 148.177C176.991 146.125 175.593 145.379 173.634 145.379H167.899V150.881ZM171.583 155.031H167.946V162.677H162.817V141.369H175.22C180.209 141.369 182.447 144.213 182.447 147.99C182.447 151.44 180.535 154.051 177.271 154.751L183.612 162.77H177.364L171.583 155.031ZM194.942 141.043C197.553 140.996 200.071 141.276 202.589 141.789V146.218C199.978 145.566 197.274 145.239 194.569 145.239C192.052 145.239 190.513 146.032 190.466 147.291C190.42 148.55 191.306 149.156 193.217 149.296L197.32 149.529C201.563 149.762 204.081 151.72 204.081 155.777C204.081 161.232 199.465 162.91 194.243 162.91C191.585 162.864 188.928 162.631 186.27 162.164V157.595C188.928 158.155 191.679 158.434 194.383 158.481C197.647 158.481 199.092 157.688 199.092 156.056C199.092 154.704 197.693 154.145 195.735 154.051L192.378 153.865C188.135 153.632 185.617 151.813 185.617 148.037C185.524 143.141 189.674 141.043 194.942 141.043ZM225.016 145.799H217.929V162.677H212.8V145.799H205.666V141.369H225.016V145.799ZM239.33 154.051L235.833 145.099L232.336 154.051H239.33ZM240.962 158.248H230.751L229.026 162.677H223.431L232.196 141.323H239.423L248.142 162.677H242.547L240.962 158.248ZM256.022 150.881H261.617C263.715 150.881 265.114 150.088 265.114 148.177C265.114 146.125 263.715 145.379 261.757 145.379H256.022V150.881ZM259.706 155.031H256.069V162.677H250.94V141.369H263.342C268.331 141.369 270.569 144.213 270.569 147.99C270.569 151.44 268.658 154.051 265.394 154.751L271.735 162.77H265.487L259.706 155.031ZM283.065 141.043C285.676 140.996 288.38 141.276 290.898 141.789V146.218C288.287 145.566 285.396 145.239 282.692 145.239C280.174 145.239 278.636 146.032 278.589 147.291C278.542 148.55 279.428 149.156 281.34 149.296L285.443 149.529C289.686 149.762 292.344 151.72 292.344 155.777C292.344 161.232 287.588 162.91 282.319 162.91C279.661 162.91 277.004 162.631 274.346 162.164V157.595C277.004 158.155 279.755 158.434 282.459 158.481C285.723 158.481 287.168 157.688 287.168 156.056C287.168 154.704 285.769 154.145 283.811 154.051L280.454 153.865C276.258 153.632 273.647 151.813 273.647 148.083C273.647 143.141 277.843 141.043 283.065 141.043Z" fill="black"/>
<path d="M43.2221 138.479C37.0675 132.324 33.1509 128.547 33.1509 128.547C33.1509 128.547 29.2344 132.324 23.0798 138.479C19.8626 141.696 12.5423 149.715 12.5423 157.735C12.5423 163.05 16.8785 167.387 22.1939 167.387C25.6908 167.387 28.7681 165.521 30.4466 162.724C30.6331 162.491 30.9129 162.351 31.1926 162.351C31.7055 162.351 32.1718 162.724 32.0785 163.144C31.7055 166.034 30.0736 173.075 23.6859 175.499H42.5227C36.135 173.121 34.5497 166.034 34.1301 163.144C34.0368 162.724 34.5031 162.351 35.0159 162.351C35.3423 162.351 35.6221 162.537 35.762 162.724C37.4405 165.475 40.5178 167.387 44.0147 167.387C49.3301 167.387 53.6663 163.05 53.6663 157.735C53.8061 149.715 46.4859 141.696 43.2221 138.479Z" fill="#D70A0A"/>
<path d="M33.1975 138.479L35.8086 146.545H44.2945L37.4405 151.487L40.0515 159.553L33.1975 154.611L26.3436 159.553L28.9546 151.487L22.1006 146.545H30.5865L33.1975 138.479Z" fill="white"/>
</svg>
