<svg width="187" height="49" viewBox="0 0 187 49" fill="none" xmlns="http://www.w3.org/2000/svg">
<path d="M18.224 48.448C14.9387 48.448 11.9947 47.9147 9.392 46.848C6.78933 45.7813 4.69867 44.2027 3.12 42.112C1.584 40.0213 0.773334 37.504 0.688 34.56H12.336C12.5067 36.224 13.0827 37.504 14.064 38.4C15.0453 39.2533 16.3253 39.68 17.904 39.68C19.5253 39.68 20.8053 39.3173 21.744 38.592C22.6827 37.824 23.152 36.7787 23.152 35.456C23.152 34.3467 22.768 33.4293 22 32.704C21.2747 31.9787 20.3573 31.3813 19.248 30.912C18.1813 30.4427 16.6453 29.9093 14.64 29.312C11.7387 28.416 9.37067 27.52 7.536 26.624C5.70133 25.728 4.12267 24.4053 2.8 22.656C1.47733 20.9067 0.816 18.624 0.816 15.808C0.816 11.6267 2.33067 8.36267 5.36 6.016C8.38933 3.62667 12.336 2.432 17.2 2.432C22.1493 2.432 26.1387 3.62667 29.168 6.016C32.1973 8.36267 33.8187 11.648 34.032 15.872H22.192C22.1067 14.4213 21.5733 13.2907 20.592 12.48C19.6107 11.6267 18.352 11.2 16.816 11.2C15.4933 11.2 14.4267 11.5627 13.616 12.288C12.8053 12.9707 12.4 13.9733 12.4 15.296C12.4 16.7467 13.0827 17.8773 14.448 18.688C15.8133 19.4987 17.9467 20.3733 20.848 21.312C23.7493 22.2933 26.096 23.232 27.888 24.128C29.7227 25.024 31.3013 26.3253 32.624 28.032C33.9467 29.7387 34.608 31.936 34.608 34.624C34.608 37.184 33.9467 39.5093 32.624 41.6C31.344 43.6907 29.4667 45.3547 26.992 46.592C24.5173 47.8293 21.5947 48.448 18.224 48.448ZM57.599 48.512C54.1003 48.512 50.943 47.7653 48.127 46.272C45.3537 44.7787 43.1563 42.6453 41.535 39.872C39.9563 37.0987 39.167 33.856 39.167 30.144C39.167 26.4747 39.9777 23.2533 41.599 20.48C43.2203 17.664 45.439 15.5093 48.255 14.016C51.071 12.5227 54.2283 11.776 57.727 11.776C61.2257 11.776 64.383 12.5227 67.199 14.016C70.015 15.5093 72.2337 17.664 73.855 20.48C75.4763 23.2533 76.287 26.4747 76.287 30.144C76.287 33.8133 75.455 37.056 73.791 39.872C72.1697 42.6453 69.9297 44.7787 67.071 46.272C64.255 47.7653 61.0977 48.512 57.599 48.512ZM57.599 39.04C59.6897 39.04 61.4603 38.272 62.911 36.736C64.4043 35.2 65.151 33.0027 65.151 30.144C65.151 27.2853 64.4257 25.088 62.975 23.552C61.567 22.016 59.8177 21.248 57.727 21.248C55.5937 21.248 53.823 22.016 52.415 23.552C51.007 25.0453 50.303 27.2427 50.303 30.144C50.303 33.0027 50.9857 35.2 52.351 36.736C53.759 38.272 55.5083 39.04 57.599 39.04ZM93.037 17.344C94.061 15.68 95.533 14.336 97.453 13.312C99.373 12.288 101.57 11.776 104.045 11.776C106.989 11.776 109.656 12.5227 112.045 14.016C114.434 15.5093 116.312 17.6427 117.677 20.416C119.085 23.1893 119.789 26.4107 119.789 30.08C119.789 33.7493 119.085 36.992 117.677 39.808C116.312 42.5813 114.434 44.736 112.045 46.272C109.656 47.7653 106.989 48.512 104.045 48.512C101.528 48.512 99.3303 48.0213 97.453 47.04C95.5757 46.016 94.1037 44.672 93.037 43.008V48H82.093V0.639999H93.037V17.344ZM108.653 30.08C108.653 27.3493 107.885 25.216 106.349 23.68C104.856 22.1013 103 21.312 100.781 21.312C98.605 21.312 96.749 22.1013 95.213 23.68C93.7197 25.2587 92.973 27.4133 92.973 30.144C92.973 32.8747 93.7197 35.0293 95.213 36.608C96.749 38.1867 98.605 38.976 100.781 38.976C102.957 38.976 104.813 38.1867 106.349 36.608C107.885 34.9867 108.653 32.8107 108.653 30.08ZM136.475 18.24C137.755 16.2773 139.355 14.7413 141.275 13.632C143.195 12.48 145.328 11.904 147.675 11.904V23.488H144.667C141.936 23.488 139.888 24.0853 138.523 25.28C137.157 26.432 136.475 28.48 136.475 31.424V48H125.531V12.288H136.475V18.24ZM186.569 29.568C186.569 30.592 186.506 31.6587 186.378 32.768H161.61C161.78 34.9867 162.484 36.6933 163.722 37.888C165.002 39.04 166.559 39.616 168.394 39.616C171.124 39.616 173.023 38.464 174.09 36.16H185.738C185.14 38.5067 184.052 40.6187 182.474 42.496C180.938 44.3733 178.996 45.8453 176.65 46.912C174.303 47.9787 171.679 48.512 168.778 48.512C165.279 48.512 162.164 47.7653 159.434 46.272C156.703 44.7787 154.57 42.6453 153.034 39.872C151.498 37.0987 150.73 33.856 150.73 30.144C150.73 26.432 151.476 23.1893 152.97 20.416C154.506 17.6427 156.639 15.5093 159.37 14.016C162.1 12.5227 165.236 11.776 168.778 11.776C172.234 11.776 175.306 12.5013 177.994 13.952C180.682 15.4027 182.772 17.472 184.266 20.16C185.802 22.848 186.569 25.984 186.569 29.568ZM175.37 26.688C175.37 24.8107 174.73 23.3173 173.45 22.208C172.17 21.0987 170.57 20.544 168.65 20.544C166.815 20.544 165.258 21.0773 163.978 22.144C162.74 23.2107 161.972 24.7253 161.674 26.688H175.37Z" fill="white"/>
</svg>
