<svg width="387" height="96" viewBox="0 0 387 96" fill="none" xmlns="http://www.w3.org/2000/svg">
<g filter="url(#filter0_d_29_2)">
<path fill-rule="evenodd" clip-rule="evenodd" d="M326.496 30.813C326.403 31.9447 326.211 33.0669 326.052 34.1926C325.752 36.3274 325.467 38.4646 325.134 40.5947C324.913 42.0069 324.426 42.423 323.037 42.4631C322.057 42.4902 321.076 42.469 320.095 42.4619C319.983 42.4607 319.873 42.4088 319.612 42.3416C320.11 38.0414 320.793 33.7647 321.392 29.3207C322.754 29.3207 324.004 29.2735 325.248 29.336C326.199 29.3831 326.576 29.8358 326.496 30.813ZM338.08 26.4291C337.884 23.3347 336.517 21.6172 333.51 20.7709C331.606 20.2345 329.649 20.0907 327.682 20.0883C318.295 20.0754 308.908 20.0742 299.521 20.0742C299.223 20.0742 298.925 20.1402 298.585 20.1803C297.781 25.6193 296.437 30.8543 294.622 35.9644C292.798 41.1004 290.6 46.0655 287.83 50.7618C287.743 50.7394 287.656 50.7158 287.57 50.6934C288.99 40.5251 290.41 30.3568 291.839 20.1225C291.336 20.1001 290.988 20.0707 290.639 20.0718C274.93 20.0848 259.221 20.1001 243.512 20.1178C243.487 20.1178 243.457 20.1614 243.437 20.1897C243.415 20.2227 243.403 20.2604 243.363 20.3465C243.618 20.6141 243.881 20.9005 244.155 21.1752C245.292 22.3163 246.412 23.475 247.581 24.5831C248.03 25.0086 248.224 25.4318 248.069 26.033C248.002 26.2959 248.013 26.5788 247.975 26.8511C247.302 31.591 246.621 36.3286 245.954 41.0697C244.773 49.4628 243.598 57.8558 242.426 66.25C242.271 67.3639 242.148 68.4814 242 69.6732C245.793 69.6732 249.466 69.6732 253.26 69.6732C254.162 63.2393 255.058 56.8467 255.97 50.3374C259.557 50.3374 263.033 50.3374 266.592 50.3374C267.043 47.0851 267.477 43.9554 267.934 40.6595C264.332 40.6595 260.896 40.6595 257.319 40.6595C257.846 36.938 258.35 33.3816 258.85 29.8523C260.643 29.613 272.685 29.6943 273.524 29.949C273.5 30.3285 273.477 30.7187 273.452 31.1101C273.281 33.773 273.05 36.4347 272.951 39.1C272.711 45.5256 273.214 51.8911 274.698 58.1587C275.624 62.0688 276.92 65.848 278.952 69.3408C279.262 69.8736 279.633 70.3722 280.025 70.9604C280.578 70.6457 281.058 70.3934 281.517 70.1082C284.628 68.1644 287.463 65.8692 290.072 63.2959C299.59 53.9103 305.316 42.4925 308.107 29.514C308.499 27.6869 308.799 25.8397 309.156 23.9277C310.157 24.5371 310.767 25.2161 310.431 26.4362C310.255 27.0751 310.212 27.7505 310.12 28.4118C309.457 33.1518 308.797 37.8941 308.134 42.6352C307.541 46.8706 306.944 51.106 306.35 55.3414C305.7 59.9658 305.05 64.5891 304.408 69.2146C304.389 69.3513 304.457 69.4999 304.494 69.6861C308.22 69.6861 311.899 69.6861 315.714 69.6861C316.592 63.5387 317.465 57.422 318.351 51.2144C319.426 51.2144 320.401 51.2003 321.376 51.218C322.48 51.2392 323.064 51.7237 323.198 52.8046C323.269 53.3834 323.263 53.9881 323.185 54.5658C322.697 58.1823 322.176 61.7941 321.671 65.4083C321.477 66.7981 321.295 68.1903 321.096 69.6661C324.919 69.6661 328.627 69.6661 332.41 69.6661C332.488 69.2394 332.568 68.861 332.623 68.4802C333.149 64.8295 333.708 61.1823 334.178 57.5245C334.438 55.5041 334.683 53.4659 334.69 51.4337C334.7 48.7024 333.541 47.3492 330.931 46.5818C330.745 46.5264 330.554 46.4898 330.365 46.445C330.346 46.3955 330.328 46.3448 330.31 46.2953C330.61 46.2175 330.907 46.1173 331.212 46.0666C333.665 45.6588 335.217 44.2183 336.001 41.8972C336.152 41.4528 336.328 41.0073 336.407 40.5475C336.8 38.2677 337.198 35.9879 337.527 33.6987C337.874 31.2904 338.234 28.8798 338.08 26.4291Z" fill="white"/>
<path fill-rule="evenodd" clip-rule="evenodd" d="M372.224 51.3217C370.321 51.3217 368.5 51.3217 366.545 51.3217C368.452 44.1582 370.342 37.0524 372.232 29.9466C372.343 29.9502 372.454 29.9525 372.565 29.9549C372.451 37.0489 372.338 44.1417 372.224 51.3217ZM359.238 20.3135C360.403 21.4805 361.496 22.657 362.684 23.7308C363.391 24.3697 363.51 24.958 363.247 25.8751C359.25 39.8674 355.291 53.8726 351.326 67.8756C351.17 68.4296 351.045 68.9942 350.88 69.6555C354.692 69.6555 358.398 69.6555 362.19 69.6555C362.929 66.8853 363.664 64.1352 364.388 61.4228C366.856 61.4228 369.195 61.4228 371.589 61.4228C371.589 64.1894 371.589 66.8842 371.589 69.6579C375.303 69.6579 378.977 69.6579 382.734 69.6579C383.037 66.7675 382.758 21.088 382.443 20.1343C379.531 19.8844 360.15 20.0058 359.238 20.3135Z" fill="white"/>
<path fill-rule="evenodd" clip-rule="evenodd" d="M337.835 20.145C338.173 20.5269 338.385 20.7898 338.622 21.0279C339.756 22.1702 340.871 23.3348 342.046 24.4335C342.619 24.971 342.796 25.4908 342.664 26.2865C342.259 28.7231 341.955 31.1762 341.615 33.6234C340.876 38.9456 340.145 44.2691 339.4 49.5901C338.572 55.4936 337.733 61.3958 336.904 67.2992C336.795 68.0654 336.717 68.8352 336.617 69.6756C340.413 69.6756 344.088 69.6756 347.878 69.6756C350.199 53.0935 352.5 36.6482 354.81 20.145C349.1 20.145 343.556 20.145 337.835 20.145Z" fill="white"/>
</g>
<path d="M20.224 70.448C16.9387 70.448 13.9947 69.9147 11.392 68.848C8.78933 67.7813 6.69867 66.2027 5.12 64.112C3.584 62.0213 2.77333 59.504 2.688 56.56H14.336C14.5067 58.224 15.0827 59.504 16.064 60.4C17.0453 61.2533 18.3253 61.68 19.904 61.68C21.5253 61.68 22.8053 61.3173 23.744 60.592C24.6827 59.824 25.152 58.7787 25.152 57.456C25.152 56.3467 24.768 55.4293 24 54.704C23.2747 53.9787 22.3573 53.3813 21.248 52.912C20.1813 52.4427 18.6453 51.9093 16.64 51.312C13.7387 50.416 11.3707 49.52 9.536 48.624C7.70133 47.728 6.12267 46.4053 4.8 44.656C3.47733 42.9067 2.816 40.624 2.816 37.808C2.816 33.6267 4.33067 30.3627 7.36 28.016C10.3893 25.6267 14.336 24.432 19.2 24.432C24.1493 24.432 28.1387 25.6267 31.168 28.016C34.1973 30.3627 35.8187 33.648 36.032 37.872H24.192C24.1067 36.4213 23.5733 35.2907 22.592 34.48C21.6107 33.6267 20.352 33.2 18.816 33.2C17.4933 33.2 16.4267 33.5627 15.616 34.288C14.8053 34.9707 14.4 35.9733 14.4 37.296C14.4 38.7467 15.0827 39.8773 16.448 40.688C17.8133 41.4987 19.9467 42.3733 22.848 43.312C25.7493 44.2933 28.096 45.232 29.888 46.128C31.7227 47.024 33.3013 48.3253 34.624 50.032C35.9467 51.7387 36.608 53.936 36.608 56.624C36.608 59.184 35.9467 61.5093 34.624 63.6C33.344 65.6907 31.4667 67.3547 28.992 68.592C26.5173 69.8293 23.5947 70.448 20.224 70.448ZM59.599 70.512C56.1003 70.512 52.943 69.7653 50.127 68.272C47.3537 66.7787 45.1563 64.6453 43.535 61.872C41.9563 59.0987 41.167 55.856 41.167 52.144C41.167 48.4747 41.9777 45.2533 43.599 42.48C45.2203 39.664 47.439 37.5093 50.255 36.016C53.071 34.5227 56.2283 33.776 59.727 33.776C63.2257 33.776 66.383 34.5227 69.199 36.016C72.015 37.5093 74.2337 39.664 75.855 42.48C77.4763 45.2533 78.287 48.4747 78.287 52.144C78.287 55.8133 77.455 59.056 75.791 61.872C74.1697 64.6453 71.9297 66.7787 69.071 68.272C66.255 69.7653 63.0977 70.512 59.599 70.512ZM59.599 61.04C61.6897 61.04 63.4603 60.272 64.911 58.736C66.4043 57.2 67.151 55.0027 67.151 52.144C67.151 49.2853 66.4257 47.088 64.975 45.552C63.567 44.016 61.8177 43.248 59.727 43.248C57.5937 43.248 55.823 44.016 54.415 45.552C53.007 47.0453 52.303 49.2427 52.303 52.144C52.303 55.0027 52.9857 57.2 54.351 58.736C55.759 60.272 57.5083 61.04 59.599 61.04ZM129.661 33.904C134.098 33.904 137.618 35.248 140.221 37.936C142.866 40.624 144.189 44.3573 144.189 49.136V70H133.309V50.608C133.309 48.304 132.69 46.5333 131.453 45.296C130.258 44.016 128.594 43.376 126.461 43.376C124.328 43.376 122.642 44.016 121.405 45.296C120.21 46.5333 119.613 48.304 119.613 50.608V70H108.733V50.608C108.733 48.304 108.114 46.5333 106.877 45.296C105.682 44.016 104.018 43.376 101.885 43.376C99.7517 43.376 98.0663 44.016 96.829 45.296C95.6343 46.5333 95.037 48.304 95.037 50.608V70H84.093V34.288H95.037V38.768C96.1463 37.2747 97.597 36.1013 99.389 35.248C101.181 34.352 103.208 33.904 105.469 33.904C108.157 33.904 110.546 34.48 112.637 35.632C114.77 36.784 116.434 38.4267 117.629 40.56C118.866 38.5973 120.552 36.9973 122.685 35.76C124.818 34.5227 127.144 33.904 129.661 33.904ZM168.099 70.512C164.6 70.512 161.443 69.7653 158.627 68.272C155.854 66.7787 153.656 64.6453 152.035 61.872C150.456 59.0987 149.667 55.856 149.667 52.144C149.667 48.4747 150.478 45.2533 152.099 42.48C153.72 39.664 155.939 37.5093 158.755 36.016C161.571 34.5227 164.728 33.776 168.227 33.776C171.726 33.776 174.883 34.5227 177.699 36.016C180.515 37.5093 182.734 39.664 184.355 42.48C185.976 45.2533 186.787 48.4747 186.787 52.144C186.787 55.8133 185.955 59.056 184.291 61.872C182.67 64.6453 180.43 66.7787 177.571 68.272C174.755 69.7653 171.598 70.512 168.099 70.512ZM168.099 61.04C170.19 61.04 171.96 60.272 173.411 58.736C174.904 57.2 175.651 55.0027 175.651 52.144C175.651 49.2853 174.926 47.088 173.475 45.552C172.067 44.016 170.318 43.248 168.227 43.248C166.094 43.248 164.323 44.016 162.915 45.552C161.507 47.0453 160.803 49.2427 160.803 52.144C160.803 55.0027 161.486 57.2 162.851 58.736C164.259 60.272 166.008 61.04 168.099 61.04ZM207.121 70.512C204.006 70.512 201.233 69.9787 198.801 68.912C196.369 67.8453 194.449 66.3947 193.041 64.56C191.633 62.6827 190.844 60.592 190.673 58.288H201.489C201.617 59.5253 202.193 60.528 203.217 61.296C204.241 62.064 205.5 62.448 206.993 62.448C208.358 62.448 209.404 62.192 210.129 61.68C210.897 61.1253 211.281 60.4213 211.281 59.568C211.281 58.544 210.748 57.7973 209.681 57.328C208.614 56.816 206.886 56.2613 204.497 55.664C201.937 55.0667 199.804 54.448 198.097 53.808C196.39 53.1253 194.918 52.08 193.681 50.672C192.444 49.2213 191.825 47.28 191.825 44.848C191.825 42.8 192.38 40.944 193.489 39.28C194.641 37.5733 196.305 36.2293 198.481 35.248C200.7 34.2667 203.324 33.776 206.353 33.776C210.833 33.776 214.353 34.8853 216.913 37.104C219.516 39.3227 221.009 42.2667 221.393 45.936H211.281C211.11 44.6987 210.556 43.7173 209.617 42.992C208.721 42.2667 207.526 41.904 206.033 41.904C204.753 41.904 203.772 42.16 203.089 42.672C202.406 43.1413 202.065 43.8027 202.065 44.656C202.065 45.68 202.598 46.448 203.665 46.96C204.774 47.472 206.481 47.984 208.785 48.496C211.43 49.1787 213.585 49.8613 215.249 50.544C216.913 51.184 218.364 52.2507 219.601 53.744C220.881 55.1947 221.542 57.1573 221.585 59.632C221.585 61.7227 220.988 63.6 219.793 65.264C218.641 66.8853 216.956 68.1653 214.737 69.104C212.561 70.0427 210.022 70.512 207.121 70.512Z" fill="white"/>
<defs>
<filter id="filter0_d_29_2" x="238" y="20.0001" width="148.864" height="58.9604" filterUnits="userSpaceOnUse" color-interpolation-filters="sRGB">
<feFlood flood-opacity="0" result="BackgroundImageFix"/>
<feColorMatrix in="SourceAlpha" type="matrix" values="0 0 0 0 0 0 0 0 0 0 0 0 0 0 0 0 0 0 127 0" result="hardAlpha"/>
<feOffset dy="4"/>
<feGaussianBlur stdDeviation="2"/>
<feComposite in2="hardAlpha" operator="out"/>
<feColorMatrix type="matrix" values="0 0 0 0 0 0 0 0 0 0 0 0 0 0 0 0 0 0 0.25 0"/>
<feBlend mode="normal" in2="BackgroundImageFix" result="effect1_dropShadow_29_2"/>
<feBlend mode="normal" in="SourceGraphic" in2="effect1_dropShadow_29_2" result="shape"/>
</filter>
</defs>
</svg>
